HIERARCHY
ROOT Hips
{
	OFFSET 0.00000 0.00000 0.00000
	CHANNELS 6 Xposition Yposition Zposition Zrotation Yrotation Xrotation 
	JOINT LHipJoint
	{
		OFFSET 0 0 0
		CHANNELS 3 Zrotation Yrotation Xrotation
		JOINT LeftUpLeg
		{
			OFFSET 1.43652 -1.81092 0.91346
			CHANNELS 3 Zrotation Yrotation Xrotation
			JOINT LeftLeg
			{
				OFFSET 2.45984 -6.75837 0.00000
				CHANNELS 3 Zrotation Yrotation Xrotation
				JOINT LeftFoot
				{
					OFFSET 2.63718 -7.24559 0.00000
					CHANNELS 3 Zrotation Yrotation Xrotation
					JOINT LeftToeBase
					{
						OFFSET 0.19690 -0.54098 2.12239
						CHANNELS 3 Zrotation Yrotation Xrotation
						End Site
						{
							OFFSET 0.00000 -0.00000 1.10116
						}
					}
				}
			}
		}
	}
	JOINT RHipJoint
	{
		OFFSET 0 0 0
		CHANNELS 3 Zrotation Yrotation Xrotation
		JOINT RightUpLeg
		{
			OFFSET -1.35116 -1.81092 0.91345
			CHANNELS 3 Zrotation Yrotation Xrotation
			JOINT RightLeg
			{
				OFFSET -2.55576 -7.02189 0.00000
				CHANNELS 3 Zrotation Yrotation Xrotation
				JOINT RightFoot
				{
					OFFSET -2.61938 -7.19669 0.00000
					CHANNELS 3 Zrotation Yrotation Xrotation
					JOINT RightToeBase
					{
						OFFSET -0.32509 -0.89318 2.23646
						CHANNELS 3 Zrotation Yrotation Xrotation
						End Site
						{
							OFFSET -0.00000 -0.00000 1.19625
						}
					}
				}
			}
		}
	}
	JOINT LowerBack
	{
		OFFSET 0 0 0
		CHANNELS 3 Zrotation Yrotation Xrotation
		JOINT Spine
		{
			OFFSET 0.05193 2.08077 -0.11958
			CHANNELS 3 Zrotation Yrotation Xrotation
			JOINT Spine1
			{
				OFFSET 0.04960 2.08447 0.01967
				CHANNELS 3 Zrotation Yrotation Xrotation
				JOINT Neck
				{
					OFFSET 0 0 0
					CHANNELS 3 Zrotation Yrotation Xrotation
					JOINT Neck1
					{
						OFFSET -0.10699 1.82066 0.27584
						CHANNELS 3 Zrotation Yrotation Xrotation
						JOINT Head
						{
							OFFSET 0.14949 1.84747 -0.32279
							CHANNELS 3 Zrotation Yrotation Xrotation
							End Site
							{
								OFFSET 0.04969 1.88916 -0.14562
							}
						}
					}
				}
				JOINT LeftShoulder
				{
					OFFSET 0 0 0
					CHANNELS 3 Zrotation Yrotation Xrotation
					JOINT LeftArm
					{
						OFFSET 3.73629 1.27211 -0.12847
						CHANNELS 3 Zrotation Yrotation Xrotation
						JOINT LeftForeArm
						{
							OFFSET 5.10995 -0.00000 0.00000
							CHANNELS 3 Zrotation Yrotation Xrotation
							JOINT LeftHand
							{
								OFFSET 3.21207 -0.00000 0.00000
								CHANNELS 3 Zrotation Yrotation Xrotation
								JOINT LeftFingerBase
								{
									OFFSET 0 0 0
									CHANNELS 3 Zrotation Yrotation Xrotation
									JOINT LeftHandIndex1
									{
										OFFSET 0.63349 -0.00000 0.00000
										CHANNELS 3 Zrotation Yrotation Xrotation
										End Site
										{
											OFFSET 0.51074 -0.00000 0.00000
										}
									}
								}
								JOINT LThumb
								{
									OFFSET 0 0 0
									CHANNELS 3 Zrotation Yrotation Xrotation
									End Site
									{
										OFFSET 0.51853 -0.00000 0.51853
									}
								}
							}
						}
					}
				}
				JOINT RightShoulder
				{
					OFFSET 0 0 0
					CHANNELS 3 Zrotation Yrotation Xrotation
					JOINT RightArm
					{
						OFFSET -3.70251 1.29541 -0.35354
						CHANNELS 3 Zrotation Yrotation Xrotation
						JOINT RightForeArm
						{
							OFFSET -5.25109 -0.00000 0.00000
							CHANNELS 3 Zrotation Yrotation Xrotation
							JOINT RightHand
							{
								OFFSET -3.28364 -0.00000 0.00000
								CHANNELS 3 Zrotation Yrotation Xrotation
								JOINT RightFingerBase
								{
									OFFSET 0 0 0
									CHANNELS 3 Zrotation Yrotation Xrotation
									JOINT RightHandIndex1
									{
										OFFSET -0.59974 -0.00000 0.00000
										CHANNELS 3 Zrotation Yrotation Xrotation
										End Site
										{
											OFFSET -0.48353 -0.00000 0.00000
										}
									}
								}
								JOINT RThumb
								{
									OFFSET 0 0 0
									CHANNELS 3 Zrotation Yrotation Xrotation
									End Site
									{
										OFFSET -0.49091 -0.00000 0.49091
									}
								}
							}
						}
					}
				}
			}
		}
	}
}
MOTION
Frames: 14
Frame Time: 0.0555556
0.00 0.00 0.00 0 0 0 0 0 0 -21 0 0 0 0 0 0 0 0 0 0 0 0 0 0 21 0 0 0 0 0 0 0 0 0 0 0 0 0 0 0 0 0 0 0 0 0 0 -16 0 0 21 0 0 11 0 0 0 -8 0 0 0 0 0 0 0 0 0 0 0 0 0 0 0 0 0 0 0 0 8 0 0 0 0 0 0 0 0 0 0 0 0 0 0 0 0 0
0.00 0.00 0.00 -7.2040 -4.3686 16.2813 0.0000 0.0000 0.0000 -9.8815 -4.9557 -26.4952 2.9895 10.6780 31.2014 0.8509 -2.8251 -16.7052 0.0455 -1.3767 -3.7859 0.0000 0.0000 0.0000 22.1375 11.7244 -23.5090 -2.7148 -10.2184 29.6869 -1.3735 -1.4154 -22.6987 -0.1025 2.0641 -5.6828 4.0152 0.3919 12.1476 3.1718 1.2124 1.6546 0.8652 0.5428 -5.0639 -13.3406 -7.2539 -18.2718 9.3550 -8.6436 22.2674 4.2945 -3.9760 11.2715 -0.0000 -0.0000 0.0000 -84.9031 9.8644 30.9188 32.9084 -43.2595 -13.3592 -0.0000 0.0000 -4.8006 18.0823 7.0689 2.3010 -7.1250 0.0000 -0.0000 -7.3994 37.3204 1.4077 -0.0000 -0.0000 0.0000 86.4237 -2.1113 31.5304 -26.5987 37.7938 -9.2521 0.0000 -0.0000 -17.5548 -23.8231 4.7346 -2.0872 7.1250 -0.0000 -0.0000 2.1275 -24.8065 1.0393
0.00 0.00 0.00 -6.7867 -2.5199 26.9453 0.0000 0.0000 0.0000 -7.2680 -8.8037 -46.8326 6.0932 14.5180 45.3546 1.3885 -4.5208 -21.2531 0.1258 -2.2864 -6.2978 0.0000 0.0000 0.0000 18.3545 15.3059 -44.1894 -5.9664 -14.3957 44.8466 -2.0813 -1.6884 -27.9262 -0.1614 2.5885 -7.1351 3.7960 0.4313 15.8352 3.0266 1.4336 1.9123 0.7683 0.6274 -6.8293 -12.6804 -7.4773 -19.5971 11.5862 -8.9020 14.6605 4.8006 -3.7709 8.9238 0.0000 -0.0000 0.0000 -85.0033 5.5143 34.2135 36.3936 -45.7820 -15.8039 -0.0000 0.0000 -7.3308 20.7470 4.2014 1.5897 -7.1250 0.0000 -0.0000 -4.8635 34.4399 1.2643 0.0000 -0.0000 0.0000 85.9868 0.2571 34.0010 -32.4330 42.8897 -13.0346 0.0000 -0.0000 -20.5000 -25.7994 6.9147 -3.3307 7.1250 -0.0000 -0.0000 0.7138 -22.3084 0.3894
0.00 0.00 0.00 -7.8607 -3.2372 29.2682 0.0000 0.0000 0.0000 -5.1620 -6.6431 -56.5984 10.7256 17.7982 61.8872 2.5342 -5.8843 -28.8949 0.6129 -5.0107 -13.9391 0.0000 0.0000 0.0000 16.9789 19.2452 -52.4610 -10.3616 -17.6082 60.6902 -2.9962 -4.3306 -34.4391 -0.3730 3.9226 -10.8590 3.3723 1.2088 19.1343 3.3034 2.5469 2.4665 1.0038 1.1562 -8.0553 -11.3874 -7.2845 -21.6530 12.5745 -8.4939 9.2411 4.9103 -3.4120 7.4085 -0.0000 -0.0000 0.0000 -85.7654 -4.5781 36.4784 35.3038 -45.0278 -15.0279 -0.0000 0.0000 -13.1888 26.3097 2.7558 1.3618 -7.1250 0.0000 -0.0000 -0.2348 33.0533 0.0687 -0.0000 -0.0000 0.0000 85.7180 8.2234 35.3750 -31.6876 42.2967 -12.5301 0.0000 -0.0000 -18.8213 -27.5916 9.5795 -4.9704 7.1250 -0.0000 -0.0000 -0.4410 -19.1985 -0.2715
0.00 0.00 0.00 -6.8447 -1.5400 24.7244 0.0000 0.0000 0.0000 -6.3617 -6.5163 -44.1328 10.8549 17.8633 62.3095 3.5843 -5.0676 -34.8015 1.6538 -8.1042 -23.0312 0.0000 0.0000 0.0000 19.9107 17.9491 -39.4558 -10.6849 -17.7774 61.7539 -3.7147 -10.0528 -40.7985 -1.0555 6.5326 -18.3377 3.3383 0.8420 15.0731 3.4556 1.9422 0.9401 1.3861 0.8850 -7.4779 -10.8400 -7.5937 -22.1715 14.1774 -9.1072 7.5137 5.2578 -3.5551 7.0870 0.0000 0.0000 0.0000 -78.7640 -5.5724 44.2023 73.2199 -58.9089 -45.5212 -0.0000 0.0000 -12.1112 25.9342 -0.1729 -0.0841 -7.1250 0.0000 -0.0000 -0.4965 29.7873 0.1843 0.0000 0.0000 0.0000 76.2979 -1.5595 38.7577 -73.9729 59.0068 -46.1664 0.0000 -0.0000 -20.1280 -20.5407 9.7519 -3.6315 7.1250 -0.0000 -0.0000 4.5875 -19.5971 2.7920
0.00 0.00 0.00 -6.1898 -0.1773 20.9196 0.0000 0.0000 0.0000 -8.9173 -3.6193 -29.1488 7.0670 15.3881 49.1274 2.6774 -6.9298 -29.6254 1.9617 -8.7857 -25.1274 0.0000 0.0000 0.0000 23.0784 12.0388 -24.7866 -7.0078 -15.3384 48.9037 -2.8670 -9.4644 -36.3519 -1.1931 6.9312 -19.5117 3.5383 0.4443 10.8860 3.3685 1.2450 0.0518 1.3470 0.5554 -6.0663 -10.9720 -7.9351 -20.9510 15.0570 -9.9342 8.7719 5.4790 -3.8981 7.4762 0.0000 0.0000 0.0000 -74.2778 1.2413 47.2976 92.8924 -59.9684 -62.5046 -0.0000 0.0000 -8.0757 26.4431 -1.2580 -0.6256 -7.1250 0.0000 -0.0000 -0.1002 28.5748 0.0401 0.0000 0.0000 0.0000 69.7087 -13.4062 42.2322 -94.0175 59.9389 -63.4785 0.0000 -0.0000 -17.1556 -16.1401 9.4613 -2.7236 7.1250 -0.0000 -0.0000 7.7282 -20.1805 4.6295
0.00 0.00 0.00 -5.5917 0.6801 17.6106 0.0000 0.0000 0.0000 -9.9175 -1.4725 -16.8577 4.2711 12.5127 37.5707 0.5336 -11.8393 -14.4155 2.2068 -9.2842 -26.6883 0.0000 0.0000 0.0000 23.6537 8.0252 -13.7036 -4.6327 -12.9578 39.2106 -1.0624 -7.0008 -23.1924 -1.4738 7.6711 -21.7195 3.7432 0.0981 7.3050 3.2749 0.6349 -0.9515 1.2316 0.2551 -5.0945 -11.5420 -8.0719 -19.4256 15.2922 -10.4549 11.2317 5.6254 -4.1528 8.1442 -0.0000 -0.0000 0.0000 -71.3765 8.3967 48.9381 102.9795 -59.3538 -71.2162 -0.0000 0.0000 -8.0289 26.3911 -2.1256 -1.0544 -7.1250 0.0000 -0.0000 -0.1492 27.6072 0.0631 -0.0000 -0.0000 0.0000 64.6448 -23.2597 45.7758 -105.5637 59.0646 -73.4363 0.0000 -0.0000 -15.4789 -11.2924 10.1755 -2.0204 7.1250 -0.0000 -0.0000 11.1443 -19.7036 6.8644
0.00 0.00 0.00 -5.3013 0.6514 15.8943 0.0000 0.0000 0.0000 -10.1365 -1.3856 -9.8273 2.7308 10.2459 29.7769 -0.3241 -10.1935 5.6895 1.8690 -8.5876 -24.5137 0.0000 0.0000 0.0000 23.2073 7.1219 -8.7257 -3.6209 -11.6380 34.4631 0.1993 -8.5758 -6.7338 -1.1051 6.6792 -18.7685 4.1205 -0.0029 4.7164 3.2251 0.4010 -1.7468 0.9950 0.1304 -4.4563 -12.0871 -7.9503 -18.4845 14.9411 -10.3943 13.0511 5.6476 -4.1834 8.5786 -0.0000 0.0000 0.0000 -69.8842 14.0137 48.9251 108.6613 -58.6424 -76.0875 -0.0000 0.0000 -9.1243 26.1607 -3.3335 -1.6361 -7.1250 0.0000 -0.0000 -0.3442 26.2667 0.1563 -0.0000 0.0000 0.0000 61.6666 -29.3868 47.8440 -111.8768 58.1121 -78.8258 0.0000 -0.0000 -15.1723 -8.5530 10.8749 -1.6253 7.1250 -0.0000 -0.0000 13.0250 -19.1298 8.2522
0.00 0.00 0.00 -4.9674 0.0568 14.7140 0.0000 0.0000 0.0000 -10.5332 -2.4620 -5.3196 1.8415 8.5278 24.3290 1.3425 -3.1261 23.2109 0.5986 -4.9529 -13.7744 0.0000 0.0000 0.0000 22.3481 7.3888 -6.6800 -3.1857 -10.9898 32.2456 -0.0161 -13.2659 9.5114 -0.0591 1.5687 -4.3150 4.2857 0.0063 2.3670 3.1832 0.2861 -2.2225 0.8666 0.0753 -3.6197 -12.4366 -7.7341 -18.2103 14.2708 -10.0649 14.4890 5.5518 -4.0963 8.9366 -0.0000 -0.0000 0.0000 -69.3735 19.5546 47.1011 112.8272 -57.9365 -79.6319 -0.0000 0.0000 -8.8858 26.1522 -4.5126 -2.2124 -7.1250 0.0000 -0.0000 -0.3767 24.9550 0.1826 -0.0000 -0.0000 0.0000 60.0007 -33.9593 48.8941 -115.2711 57.4438 -81.6976 0.0000 -0.0000 -13.9527 -8.8767 12.1544 -1.8834 7.1250 -0.0000 -0.0000 12.7324 -17.8551 8.4264
0.00 0.00 0.00 -4.2879 -4.1369 7.8525 0.0000 0.0000 0.0000 -11.5206 -0.5834 -8.0522 3.4411 11.3770 33.5621 2.3571 -8.0407 32.7361 0.0966 2.0048 5.5188 0.0000 0.0000 0.0000 20.4648 10.3994 -11.5508 -5.0319 -13.4197 40.9604 -0.4143 -15.1858 14.7315 -0.5121 -4.5868 12.7337 4.3236 0.3940 5.6170 3.3077 0.9517 -0.7375 0.9124 0.4132 -3.9062 -11.7890 -6.9727 -19.1746 11.5704 -8.6027 15.4870 4.7155 -3.5895 9.0501 -0.0000 -0.0000 0.0000 -76.2777 32.9236 29.1143 102.8883 -59.3630 -71.1377 -0.0000 0.0000 -8.5323 30.4759 -2.3355 -1.3737 -7.1250 0.0000 -0.0000 2.9824 27.2672 -1.2862 -0.0000 -0.0000 0.0000 68.1682 -36.7845 37.5139 -101.3472 59.5078 -69.8107 0.0000 -0.0000 -18.2482 -15.0053 9.7185 -2.5908 7.1250 -0.0000 -0.0000 8.5317 -19.9793 5.1600
0.00 0.00 0.00 -3.5029 -6.1548 6.4842 0.0000 0.0000 0.0000 -12.6984 -0.4996 -9.1832 2.4429 9.7334 28.1177 1.5200 -5.7537 25.9831 0.0138 0.7590 2.0859 0.0000 0.0000 0.0000 18.6868 11.3233 -15.6191 -4.4222 -12.7019 38.2627 -0.1077 -15.0883 11.7463 -0.5412 -4.7133 13.0927 4.3801 0.5444 7.1815 3.2282 1.2347 -0.2762 0.7579 0.5481 -4.3012 -11.7063 -6.5775 -18.5936 10.7382 -7.9736 15.6081 4.5147 -3.3919 8.8627 -0.0000 0.0000 0.0000 -78.4842 33.0981 24.7777 85.6555 -59.9286 -56.2384 -0.0000 0.0000 -10.9469 32.9316 -0.3996 -0.2588 -7.1250 0.0000 -0.0000 4.9904 29.4866 -1.8941 -0.0000 0.0000 0.0000 70.8009 -32.0887 33.8983 -84.1056 59.8683 -54.8976 0.0000 -0.0000 -19.5061 -18.4401 7.4892 -2.4885 7.1250 -0.0000 -0.0000 6.0995 -22.1056 3.3745
0.00 0.00 0.00 -1.8056 -8.2599 4.9906 0.0000 0.0000 0.0000 -14.3124 -2.1645 -11.8215 0.5278 4.6556 12.9290 0.8594 5.9897 16.5283 0.0316 -1.1468 -3.1529 0.0000 0.0000 0.0000 15.0676 13.3743 -22.9332 -2.1424 -9.1567 26.2866 -0.1753 -11.1479 10.2124 -0.1065 -2.1044 5.7943 4.4253 0.5030 8.6391 3.6687 1.2747 0.2337 1.1740 0.5693 -4.5986 -11.8734 -5.9009 -17.6905 9.2309 -6.7793 15.6106 4.2010 -3.0161 8.5030 -0.0000 -0.0000 0.0000 -79.1111 32.6945 26.7067 59.9338 -56.2923 -34.2860 -0.0000 0.0000 -10.7225 31.1222 0.4831 0.2917 -7.1250 0.0000 -0.0000 3.6110 30.5333 -1.2780 -0.0000 -0.0000 0.0000 70.3394 -24.5084 32.8892 -58.5148 55.9010 -33.1082 0.0000 -0.0000 -22.3035 -24.1630 4.5413 -2.0344 7.1250 -0.0000 -0.0000 1.8707 -25.0044 0.9051
0.00 0.00 0.00 -0.9358 -5.8940 -2.7878 0.0000 0.0000 0.0000 -14.7657 0.1714 -21.4340 1.9894 8.8439 25.3083 0.1867 -6.4905 13.0004 0.0557 -1.5223 -4.1872 0.0000 0.0000 0.0000 14.3074 15.1379 -24.6114 -3.5307 -11.5083 34.0140 -0.3308 -7.2322 10.6997 -0.0064 0.5159 -1.4177 5.0773 -0.0265 10.5758 4.0387 0.6843 2.1607 1.2599 0.2980 -3.6664 -12.2211 -5.9746 -14.8827 8.9818 -7.0695 15.3499 4.1724 -3.2700 7.9585 -0.0000 0.0000 0.0000 -79.7029 27.9109 34.4574 47.0762 -51.7460 -23.8582 -0.0000 0.0000 -17.9855 26.9635 2.3899 1.2153 -7.1250 0.0000 -0.0000 0.3026 32.6607 -0.0915 -0.0000 0.0000 0.0000 74.3726 -17.8322 29.2822 -39.1359 47.5495 -17.7990 0.0000 -0.0000 -21.1367 -24.6908 3.0082 -1.3821 7.1250 -0.0000 -0.0000 1.4600 -26.6689 0.6496
0.00 0.00 0.00 -2.0053 -5.3460 -6.7881 0.0000 0.0000 0.0000 -12.9171 1.8170 -26.1228 5.8572 14.2885 44.4059 -0.2509 -11.5363 -3.6928 0.1161 -2.1972 -6.0509 0.0000 0.0000 0.0000 16.8227 14.2801 -24.4324 -6.8358 -15.1921 48.2506 -0.1631 -1.3450 -8.2458 -0.2448 3.1837 -8.7905 5.7561 -0.1442 13.4164 4.1380 0.8126 2.8717 0.9657 0.3461 -4.4738 -12.1982 -6.0687 -14.2614 9.3036 -7.3413 15.3105 4.2541 -3.3852 7.8786 0.0000 0.0000 0.0000 -81.2226 25.8479 33.2934 44.2292 -50.3852 -21.6433 -0.0000 0.0000 -15.5940 24.8643 2.1915 1.0152 -7.1250 0.0000 -0.0000 -1.3912 32.3928 0.4295 0.0000 0.0000 0.0000 77.1893 -16.2885 27.2384 -35.2466 44.9874 -14.9874 0.0000 -0.0000 -21.6286 -23.6845 2.3001 -1.0085 7.1250 -0.0000 -0.0000 2.2323 -27.4665 0.9518
